<?xml version="1.0" encoding="UTF-8" standalone="no"?>
<svg
   xmlns:dc="http://purl.org/dc/elements/1.1/"
   xmlns:cc="http://creativecommons.org/ns#"
   xmlns:rdf="http://www.w3.org/1999/02/22-rdf-syntax-ns#"
   xmlns:svg="http://www.w3.org/2000/svg"
   xmlns="http://www.w3.org/2000/svg"
   xmlns:xlink="http://www.w3.org/1999/xlink"
   height="256"
   width="256"
   id="svg66"
   version="1.1"
   viewBox="0 0 256 256">
  <metadata
     id="metadata70">
    <rdf:RDF>
      <cc:Work
         rdf:about="">
        <dc:format>image/svg+xml</dc:format>
        <dc:type
           rdf:resource="http://purl.org/dc/dcmitype/StillImage" />
      </cc:Work>
    </rdf:RDF>
  </metadata>
  <defs
     id="defs42">
    <linearGradient
       gradientTransform="matrix(1.56769,0,0,1.56769,-129.37,-94.568)"
       gradientUnits="userSpaceOnUse"
       id="a"
       y2="141.97301"
       x2="240.94701"
       y1="141.97301"
       x1="87.397003">
      <stop
         id="stop2"
         stop-opacity=".47"
         stop-color="#fff"
         offset="0" />
      <stop
         id="stop4"
         stop-opacity=".219"
         stop-color="#d7d7d7"
         offset=".241" />
      <stop
         id="stop6"
         stop-opacity="0"
         stop-color="#4d4d4d"
         offset=".459" />
      <stop
         id="stop8"
         stop-opacity=".471"
         stop-color="#fff"
         offset=".719" />
      <stop
         id="stop10"
         stop-opacity=".4"
         stop-color="#f2f2f2"
         offset=".874" />
      <stop
         id="stop12"
         stop-opacity=".624"
         stop-color="#fff"
         offset="1" />
    </linearGradient>
    <linearGradient
       y2="141.97301"
       x2="269.33301"
       y1="141.97301"
       x1="87.397003"
       gradientTransform="matrix(1.56769,0,0,1.56769,-129.57,-95.333)"
       gradientUnits="userSpaceOnUse"
       id="d"
       xlink:href="#a" />
    <linearGradient
       gradientTransform="matrix(1.56769,0,0,1.56769,-69.826,15.227)"
       x1="126.189"
       y1="38.575001"
       x2="126.189"
       y2="108.136"
       id="b"
       gradientUnits="userSpaceOnUse">
      <stop
         id="stop16"
         stop-color="#f00000"
         offset="0" />
      <stop
         id="stop18"
         stop-color="#f00000"
         offset=".1" />
      <stop
         id="stop20"
         stop-color="#ff8000"
         offset=".16" />
      <stop
         id="stop22"
         stop-color="#ff8000"
         offset=".297" />
      <stop
         id="stop24"
         stop-color="#ff0"
         offset=".358" />
      <stop
         id="stop26"
         stop-color="#ff0"
         offset=".487" />
      <stop
         id="stop28"
         stop-color="#007940"
         offset=".544" />
      <stop
         id="stop30"
         stop-color="#007940"
         offset=".675" />
      <stop
         id="stop32"
         stop-color="#4040ff"
         offset=".742" />
      <stop
         id="stop34"
         stop-color="#4040ff"
         offset=".87" />
      <stop
         id="stop36"
         stop-color="#a000c0"
         offset=".931" />
      <stop
         id="stop38"
         stop-color="#a000c0"
         offset="1" />
    </linearGradient>
    <linearGradient
       y2="116.343"
       x2="129.44299"
       y1="24.51"
       x1="126.189"
       gradientTransform="matrix(1.56769,0,0,1.56769,-69.826,15.227)"
       gradientUnits="userSpaceOnUse"
       id="c"
       xlink:href="#b" />
  </defs>
  <path
     style="fill:none"
     id="path44"
     d="M 0,256 V 0 h 256 v 256" />
  <path
     style="fill:#333333"
     id="path46"
     d="M 248.36,32.472 C 167.273,-10.43 86.184,85.849 5.096,40.005 2.281,38.417 0,39.213 0,42.03 v 171.94 c 0,2.811 2.281,6.58 5.095,8.165 81.936,46.325 163.874,-52.464 245.81,-6.14 2.814,1.587 5.095,0.793 5.095,-2.024 V 42.03 c 0,-2.811 -2.281,-6.578 -5.095,-8.166 -0.848,-0.479 -1.696,-0.943 -2.544,-1.392 z" />
  <path
     style="fill:#006233"
     id="path48"
     d="m 248.36,37.567 c 0,1.854 -14.891,-10.205 -37.309,-11.054 -22.416,-2.352 -52.355,6.506 -82.452,15.426 C 98.502,50.84 68.251,59.83 45.21,57.5 22.17,56.646 6.343,44.472 5.095,45.1 v 171.941 c 1.235,-0.802 16.907,11.481 39.798,12.395 22.89,2.4 52.999,-6.569 83.107,-15.507 30.11,-8.93 60.219,-17.857 83.108,-15.438 22.89,0.933 38.563,13.21 39.797,12.41 V 38.958 c -1.274,-0.722 -2.544,-1.392 -2.544,-1.392 z" />
  <path
     style="fill:url(#c)"
     id="path50"
     d="m 248.36,37.567 c 0,1.854 -14.891,-10.205 -37.309,-11.054 -22.416,-2.352 -52.355,6.506 -82.452,15.426 C 98.502,50.84 68.251,59.83 45.21,57.5 22.17,56.646 6.343,44.472 5.095,45.1 v 171.941 c 1.235,-0.802 16.907,11.481 39.798,12.395 22.89,2.4 52.999,-6.569 83.107,-15.507 30.11,-8.93 60.219,-17.857 83.108,-15.438 22.89,0.933 38.563,13.21 39.797,12.41 V 38.958 c -1.274,-0.722 -2.544,-1.392 -2.544,-1.392 z" />
  <path
     style="fill:#e40303"
     id="path52"
     d="M 7.643,49.133 V 92.247 C 87.882,135.102 168.122,40.375 248.361,83.234 V 40.121 C 168.12,-2.739 87.88,91.989 7.643,49.133 Z" />
  <path
     style="fill:#ff8c00"
     id="path54"
     d="m 7.643,74.733 v 43.114 c 80.239,42.855 160.479,-51.872 240.718,-9.013 V 65.721 C 168.121,22.861 87.881,117.589 7.643,74.733 Z" />
  <path
     style="fill:#ffed00"
     id="path56"
     d="m 7.643,102.893 v 43.114 c 80.239,42.855 160.479,-51.872 240.718,-9.013 V 93.881 c -80.24,-42.86 -160.48,51.868 -240.718,9.012 z" />
  <path
     style="fill:#008026"
     id="path58"
     d="m 7.643,130.426 v 43.113 c 80.239,42.855 160.479,-51.871 240.718,-9.012 V 121.413 C 168.121,78.554 87.881,173.282 7.643,130.426 Z" />
  <path
     style="fill:#004dff"
     id="path60"
     d="m 7.643,158.586 v 43.113 c 80.239,42.855 160.479,-51.871 240.718,-9.012 v -43.114 c -80.24,-42.859 -160.48,51.869 -240.718,9.013 z" />
  <path
     style="fill:#750787"
     id="path62"
     d="m 7.643,186.745 v 29.139 c 80.239,42.855 160.479,-51.872 240.718,-9.013 v -29.586 c -80.24,-42.86 -160.48,52.316 -240.718,9.46 z" />
  <path
     style="fill:url(#d)"
     id="path64"
     d="m 248.162,206.197 c -80.24,-42.452 -160.48,51.377 -240.72,8.926 V 48.277 c 80.24,42.45 160.48,-51.377 240.72,-8.925 z" />
</svg>
